<?xml version="1.0" standalone="no"?>
<!DOCTYPE svg PUBLIC "-//W3C//DTD SVG 20010904//EN"
 "http://www.w3.org/TR/2001/REC-SVG-20010904/DTD/svg10.dtd">
<svg version="1.0" xmlns="http://www.w3.org/2000/svg"
 width="1280.000000pt" height="1072.000000pt" viewBox="0 0 1280.000000 1072.000000"
 preserveAspectRatio="xMidYMid meet">
<metadata>
Created by potrace 1.15, written by Peter Selinger 2001-2017
</metadata>
<g transform="translate(0.000000,1072.000000) scale(0.100000,-0.100000)"
fill="#ff9800" stroke="none">
<path d="M3940 10710 c-202 -9 -295 -26 -435 -81 -238 -93 -456 -272 -653
-534 -102 -136 -203 -306 -242 -405 -195 -508 118 -969 935 -1375 403 -200
914 -379 1550 -544 l230 -60 -1652 0 -1651 -1 -399 -167 -398 -168 2140 -5
c1177 -3 2133 -8 2125 -11 -105 -46 -1424 -559 -1435 -559 -13 0 -15 -402 -15
-3400 l0 -3400 680 0 680 0 0 3398 1 3397 172 67 c95 37 425 166 734 288 l562
220 1965 0 1966 0 0 -3396 0 -3396 23 6 c12 3 157 61 322 130 l300 125 0 3433
0 3433 -1705 5 c-1696 5 -1705 5 -1635 24 281 76 637 244 930 439 217 144 457
365 592 545 142 188 232 374 284 582 20 80 23 120 23 260 0 141 -3 178 -23
250 -48 178 -136 328 -266 455 -177 171 -407 276 -715 327 -114 19 -432 15
-575 -6 -192 -28 -281 -53 -403 -111 -473 -227 -836 -597 -1107 -1130 -202
-396 -353 -915 -410 -1410 -25 -220 -25 -220 -59 -220 l-30 0 -172 685 c-185
738 -205 812 -266 995 -185 552 -380 816 -824 1117 -184 126 -314 177 -499
198 -98 11 -371 11 -645 0z m-343 -318 c287 -97 613 -330 1037 -742 434 -422
977 -1065 1492 -1765 61 -82 114 -156 118 -162 6 -10 -22 -13 -126 -13 l-133
0 -265 141 c-799 426 -1412 801 -1875 1149 -240 180 -350 274 -510 435 -248
248 -365 450 -365 624 1 157 111 297 276 352 89 29 229 21 351 -19z m5859 -83
c73 -27 138 -91 154 -150 26 -96 -22 -229 -140 -389 -78 -106 -383 -411 -552
-551 -363 -302 -798 -618 -1349 -982 l-234 -155 -355 -140 c-195 -77 -356
-138 -358 -137 -4 3 252 340 386 510 900 1135 1645 1835 2112 1983 91 29 95
30 192 31 67 1 101 -4 144 -20z"/>
<path d="M5566 8171 c17 -16 144 -83 144 -76 0 4 -14 25 -31 46 -28 35 -35 39
-77 39 -27 0 -42 -4 -36 -9z"/>
<path d="M3025 8042 l-340 -137 322 -3 c512 -4 971 2 948 12 -11 5 -74 31
-140 59 -66 27 -194 85 -284 128 -90 44 -164 79 -165 78 -1 -1 -154 -62 -341
-137z"/>
<path d="M9325 8129 c-48 -40 -203 -148 -311 -216 -15 -9 183 -12 896 -15 948
-3 958 -3 1305 3 233 4 270 -2 373 -61 l52 -30 0 -3409 c0 -1874 3 -3410 6
-3413 3 -3 264 98 580 225 l574 232 0 3367 0 3368 -1707 -1 -1708 0 -60 -50z"/>
<path d="M445 7011 l-440 -178 -3 -3366 -2 -3367 1915 0 1914 0 3 2978 c2
1637 -1 3085 -6 3217 -8 242 0 428 25 546 22 102 111 160 350 229 144 42 239
77 239 89 0 3 -582 5 -1292 3 -1119 -3 -1958 6 -2203 23 -58 4 -72 -1 -500
-174z"/>
<path d="M6937 7144 c-206 -44 -430 -123 -822 -289 -126 -53 -296 -122 -377
-153 l-148 -56 0 -3273 0 -3273 1923 -2 1922 -3 577 230 578 230 0 3303 0
3302 -1792 -1 c-1536 -1 -1803 -3 -1861 -15z"/>
</g>
</svg>
